<svg width="255" height="229" viewBox="0 0 255 229" fill="none" xmlns="http://www.w3.org/2000/svg">
<g filter="url(#filter0_d_108_32)">
<ellipse cx="162" cy="75.5" rx="57" ry="59.5" fill="url(#paint0_linear_108_32)"/>
</g>
<g filter="url(#filter1_d_108_32)">
<rect x="8" y="89" width="239" height="93" rx="41.5" fill="url(#paint1_linear_108_32)" shape-rendering="crispEdges"/>
</g>
<g filter="url(#filter2_d_108_32)">
<ellipse cx="84.5" cy="75.5" rx="32.5" ry="33.5" fill="url(#paint2_linear_108_32)"/>
</g>
<path d="M132.495 197L138.508 203.446C139.698 204.719 140.508 206.343 140.836 208.11C141.165 209.878 140.997 211.71 140.354 213.375C139.71 215.04 138.621 216.463 137.223 217.464C135.825 218.466 134.181 219 132.5 219C130.819 219 129.175 218.466 127.777 217.464C126.379 216.463 125.29 215.04 124.646 213.375C124.003 211.71 123.835 209.878 124.164 208.11C124.492 206.343 125.302 204.719 126.492 203.446L132.495 197Z" stroke="#67D3E9" stroke-width="2" stroke-linecap="round" stroke-linejoin="round"/>
<path d="M85.4947 190L91.5084 196.446C92.6977 197.719 93.5078 199.343 93.8363 201.11C94.1647 202.878 93.9967 204.71 93.3535 206.375C92.7103 208.04 91.6209 209.463 90.2229 210.464C88.825 211.466 87.1814 212 85.5 212C83.8186 212 82.175 211.466 80.7771 210.464C79.3791 209.463 78.2897 208.04 77.6465 206.375C77.0033 204.71 76.8353 202.878 77.1637 201.11C77.4922 199.343 78.3023 197.719 79.4916 196.446L85.4947 190Z" stroke="#67D3E9" stroke-width="2" stroke-linecap="round" stroke-linejoin="round"/>
<path d="M65.9975 200L68.8275 203.223C69.3872 203.86 69.7684 204.671 69.9229 205.555C70.0775 206.439 69.9984 207.355 69.6958 208.187C69.3931 209.02 68.8804 209.731 68.2226 210.232C67.5647 210.733 66.7912 211 66 211C65.2088 211 64.4353 210.733 63.7774 210.232C63.1196 209.731 62.6069 209.02 62.3042 208.187C62.0016 207.355 61.9225 206.439 62.0771 205.555C62.2316 204.671 62.6128 203.86 63.1725 203.223L65.9975 200Z" stroke="#67D3E9" stroke-width="2" stroke-linecap="round" stroke-linejoin="round"/>
<path d="M76.9975 216L79.8275 219.223C80.3872 219.86 80.7684 220.671 80.9229 221.555C81.0775 222.439 80.9984 223.355 80.6958 224.187C80.3931 225.02 79.8804 225.731 79.2226 226.232C78.5647 226.733 77.7912 227 77 227C76.2088 227 75.4353 226.733 74.7774 226.232C74.1196 225.731 73.6069 225.02 73.3042 224.187C73.0016 223.355 72.9225 222.439 73.0771 221.555C73.2316 220.671 73.6128 219.86 74.1725 219.223L76.9975 216Z" stroke="#67D3E9" stroke-width="2" stroke-linecap="round" stroke-linejoin="round"/>
<path d="M103.997 194L106.827 197.223C107.387 197.86 107.768 198.671 107.923 199.555C108.078 200.439 107.998 201.355 107.696 202.187C107.393 203.02 106.88 203.731 106.223 204.232C105.565 204.733 104.791 205 104 205C103.209 205 102.435 204.733 101.777 204.232C101.12 203.731 100.607 203.02 100.304 202.187C100.002 201.355 99.9225 200.439 100.077 199.555C100.232 198.671 100.613 197.86 101.173 197.223L103.997 194Z" stroke="#67D3E9" stroke-width="2" stroke-linecap="round" stroke-linejoin="round"/>
<path d="M111.997 212L114.827 215.223C115.387 215.86 115.768 216.671 115.923 217.555C116.078 218.439 115.998 219.355 115.696 220.187C115.393 221.02 114.88 221.731 114.223 222.232C113.565 222.733 112.791 223 112 223C111.209 223 110.435 222.733 109.777 222.232C109.12 221.731 108.607 221.02 108.304 220.187C108.002 219.355 107.922 218.439 108.077 217.555C108.232 216.671 108.613 215.86 109.173 215.223L111.997 212Z" stroke="#67D3E9" stroke-width="2" stroke-linecap="round" stroke-linejoin="round"/>
<path d="M151.997 199L154.827 202.223C155.387 202.86 155.768 203.671 155.923 204.555C156.078 205.439 155.998 206.355 155.696 207.187C155.393 208.02 154.88 208.731 154.223 209.232C153.565 209.733 152.791 210 152 210C151.209 210 150.435 209.733 149.777 209.232C149.12 208.731 148.607 208.02 148.304 207.187C148.002 206.355 147.922 205.439 148.077 204.555C148.232 203.671 148.613 202.86 149.173 202.223L151.997 199Z" stroke="#67D3E9" stroke-width="2" stroke-linecap="round" stroke-linejoin="round"/>
<path d="M199.997 190L202.827 193.223C203.387 193.86 203.768 194.671 203.923 195.555C204.078 196.439 203.998 197.355 203.696 198.187C203.393 199.02 202.88 199.731 202.223 200.232C201.565 200.733 200.791 201 200 201C199.209 201 198.435 200.733 197.777 200.232C197.12 199.731 196.607 199.02 196.304 198.187C196.002 197.355 195.922 196.439 196.077 195.555C196.232 194.671 196.613 193.86 197.173 193.223L199.997 190Z" stroke="#67D3E9" stroke-width="2" stroke-linecap="round" stroke-linejoin="round"/>
<path d="M195.997 214L198.827 217.223C199.387 217.86 199.768 218.671 199.923 219.555C200.078 220.439 199.998 221.355 199.696 222.187C199.393 223.02 198.88 223.731 198.223 224.232C197.565 224.733 196.791 225 196 225C195.209 225 194.435 224.733 193.777 224.232C193.12 223.731 192.607 223.02 192.304 222.187C192.002 221.355 191.922 220.439 192.077 219.555C192.232 218.671 192.613 217.86 193.173 217.223L195.997 214Z" stroke="#67D3E9" stroke-width="2" stroke-linecap="round" stroke-linejoin="round"/>
<path d="M162.997 217L165.827 220.223C166.387 220.86 166.768 221.671 166.923 222.555C167.078 223.439 166.998 224.355 166.696 225.187C166.393 226.02 165.88 226.731 165.223 227.232C164.565 227.733 163.791 228 163 228C162.209 228 161.435 227.733 160.777 227.232C160.12 226.731 159.607 226.02 159.304 225.187C159.002 224.355 158.922 223.439 159.077 222.555C159.232 221.671 159.613 220.86 160.173 220.223L162.997 217Z" stroke="#67D3E9" stroke-width="2" stroke-linecap="round" stroke-linejoin="round"/>
<path d="M180.495 194L186.508 200.446C187.698 201.719 188.508 203.343 188.836 205.11C189.165 206.878 188.997 208.71 188.354 210.375C187.71 212.04 186.621 213.463 185.223 214.464C183.825 215.466 182.181 216 180.5 216C178.819 216 177.175 215.466 175.777 214.464C174.379 213.463 173.29 212.04 172.646 210.375C172.003 208.71 171.835 206.878 172.164 205.11C172.492 203.343 173.302 201.719 174.492 200.446L180.495 194Z" stroke="#67D3E9" stroke-width="2" stroke-linecap="round" stroke-linejoin="round"/>
<circle cx="136.5" cy="212.5" r="1.5" fill="black" fill-opacity="0.14"/>
<defs>
<filter id="filter0_d_108_32" x="85" y="0" width="154" height="159" filterUnits="userSpaceOnUse" color-interpolation-filters="sRGB">
<feFlood flood-opacity="0" result="BackgroundImageFix"/>
<feColorMatrix in="SourceAlpha" type="matrix" values="0 0 0 0 0 0 0 0 0 0 0 0 0 0 0 0 0 0 127 0" result="hardAlpha"/>
<feOffset dy="4"/>
<feGaussianBlur stdDeviation="10"/>
<feComposite in2="hardAlpha" operator="out"/>
<feColorMatrix type="matrix" values="0 0 0 0 0 0 0 0 0 0 0 0 0 0 0 0 0 0 0.25 0"/>
<feBlend mode="normal" in2="BackgroundImageFix" result="effect1_dropShadow_108_32"/>
<feBlend mode="normal" in="SourceGraphic" in2="effect1_dropShadow_108_32" result="shape"/>
</filter>
<filter id="filter1_d_108_32" x="0" y="85" width="255" height="109" filterUnits="userSpaceOnUse" color-interpolation-filters="sRGB">
<feFlood flood-opacity="0" result="BackgroundImageFix"/>
<feColorMatrix in="SourceAlpha" type="matrix" values="0 0 0 0 0 0 0 0 0 0 0 0 0 0 0 0 0 0 127 0" result="hardAlpha"/>
<feOffset dy="4"/>
<feGaussianBlur stdDeviation="4"/>
<feComposite in2="hardAlpha" operator="out"/>
<feColorMatrix type="matrix" values="0 0 0 0 0 0 0 0 0 0 0 0 0 0 0 0 0 0 0.25 0"/>
<feBlend mode="normal" in2="BackgroundImageFix" result="effect1_dropShadow_108_32"/>
<feBlend mode="normal" in="SourceGraphic" in2="effect1_dropShadow_108_32" result="shape"/>
</filter>
<filter id="filter2_d_108_32" x="34" y="28" width="101" height="103" filterUnits="userSpaceOnUse" color-interpolation-filters="sRGB">
<feFlood flood-opacity="0" result="BackgroundImageFix"/>
<feColorMatrix in="SourceAlpha" type="matrix" values="0 0 0 0 0 0 0 0 0 0 0 0 0 0 0 0 0 0 127 0" result="hardAlpha"/>
<feOffset dy="4"/>
<feGaussianBlur stdDeviation="9"/>
<feComposite in2="hardAlpha" operator="out"/>
<feColorMatrix type="matrix" values="0 0 0 0 0 0 0 0 0 0 0 0 0 0 0 0 0 0 0.25 0"/>
<feBlend mode="normal" in2="BackgroundImageFix" result="effect1_dropShadow_108_32"/>
<feBlend mode="normal" in="SourceGraphic" in2="effect1_dropShadow_108_32" result="shape"/>
</filter>
<linearGradient id="paint0_linear_108_32" x1="162" y1="16" x2="162" y2="135" gradientUnits="userSpaceOnUse">
<stop offset="0.760417" stop-color="#EDE7E7"/>
<stop offset="1" stop-color="#C7C7C7"/>
</linearGradient>
<linearGradient id="paint1_linear_108_32" x1="127.5" y1="89" x2="127.5" y2="182" gradientUnits="userSpaceOnUse">
<stop stop-color="white" stop-opacity="0.88"/>
<stop offset="0.870287" stop-color="#C4C4C4"/>
</linearGradient>
<linearGradient id="paint2_linear_108_32" x1="84.5" y1="42" x2="84.5" y2="109" gradientUnits="userSpaceOnUse">
<stop offset="0.713542" stop-color="#F7F7F7"/>
<stop offset="1" stop-color="#E5E5E5"/>
</linearGradient>
</defs>
</svg>
