<svg width="25" height="34" viewBox="0 0 25 34" fill="none" xmlns="http://www.w3.org/2000/svg">
<path d="M12.995 13L18.655 18.66C19.7743 19.7786 20.5368 21.2041 20.8459 22.7561C21.155 24.308 20.9969 25.9168 20.3915 27.379C19.7862 28.8411 18.7608 30.0908 17.4451 30.9701C16.1294 31.8494 14.5825 32.3187 13 32.3187C11.4175 32.3187 9.8706 31.8494 8.5549 30.9701C7.23919 30.0908 6.21381 28.8411 5.60847 27.379C5.00312 25.9168 4.845 24.308 5.15411 22.7561C5.46321 21.2041 6.22566 19.7786 7.345 18.66L12.995 13Z" stroke="#000749" stroke-opacity="0.3" stroke-width="2" stroke-linecap="round" stroke-linejoin="round"/>
<path d="M20.9981 6L23.1206 8.05086C23.5404 8.45618 23.8263 8.97269 23.9422 9.53504C24.0581 10.0974 23.9988 10.6803 23.7718 11.2101C23.5448 11.7399 23.1603 12.1927 22.6669 12.5113C22.1735 12.8299 21.5934 13 21 13C20.4066 13 19.8265 12.8299 19.3331 12.5113C18.8397 12.1927 18.4552 11.7399 18.2282 11.2101C18.0012 10.6803 17.9419 10.0974 18.0578 9.53504C18.1737 8.97269 18.4596 8.45618 18.8794 8.05086L20.9981 6Z" stroke="#000749" stroke-opacity="0.3" stroke-linecap="round" stroke-linejoin="round"/>
<path d="M4.9975 1L7.8275 3.63682C8.38717 4.15795 8.76839 4.82203 8.92295 5.54505C9.0775 6.26808 8.99844 7.01757 8.69577 7.69872C8.39309 8.37988 7.88041 8.96209 7.22255 9.37173C6.5647 9.78136 5.79124 10 5 10C4.20876 10 3.4353 9.78136 2.77745 9.37173C2.11959 8.96209 1.60691 8.37988 1.30423 7.69872C1.00156 7.01757 0.922499 6.26808 1.07705 5.54505C1.23161 4.82203 1.61283 4.15795 2.1725 3.63682L4.9975 1Z" stroke="#000749" stroke-opacity="0.3" stroke-width="2" stroke-linecap="round" stroke-linejoin="round"/>
<circle cx="16.5" cy="26.5" r="1.5" fill="#000749" fill-opacity="0.3"/>
</svg>
