<svg width="22" height="18" viewBox="0 0 22 18" fill="none" xmlns="http://www.w3.org/2000/svg">
<path d="M16.73 4.72998C17.0208 4.43987 17.3787 4.2259 17.7719 4.10699C18.1652 3.98809 18.5816 3.96792 18.9845 4.04827C19.3874 4.12861 19.7642 4.307 20.0817 4.56765C20.3993 4.8283 20.6477 5.16318 20.805 5.54267C20.9623 5.92217 21.0236 6.33458 20.9836 6.74343C20.9436 7.15228 20.8035 7.54498 20.5756 7.88678C20.3477 8.22859 20.0391 8.50897 19.6771 8.70313C19.3151 8.89729 18.9108 8.99925 18.5 8.99998H1M8.59 1.58998C8.82231 1.3563 9.10875 1.18363 9.42387 1.08732C9.73899 0.991021 10.073 0.974069 10.3963 1.03797C10.7195 1.10188 11.022 1.24466 11.2768 1.45363C11.5315 1.66259 11.7307 1.93127 11.8566 2.23578C11.9825 2.54028 12.0313 2.87117 11.9985 3.19905C11.9657 3.52692 11.8524 3.84161 11.6687 4.11514C11.4849 4.38868 11.2365 4.61258 10.9454 4.76695C10.6542 4.92132 10.3295 5.00137 10 4.99998H1L8.59 1.58998ZM11.59 16.41C11.8223 16.6437 12.1088 16.8163 12.4239 16.9126C12.739 17.0089 13.073 17.0259 13.3963 16.962C13.7195 16.8981 14.022 16.7553 14.2768 16.5463C14.5315 16.3374 14.7307 16.0687 14.8566 15.7642C14.9825 15.4597 15.0313 15.1288 14.9985 14.8009C14.9657 14.473 14.8524 14.1584 14.6687 13.8848C14.4849 13.6113 14.2365 13.3874 13.9454 13.233C13.6542 13.0786 13.3295 12.9986 13 13H1L11.59 16.41Z" stroke="#000749" stroke-opacity="0.3" stroke-width="2" stroke-linecap="round" stroke-linejoin="round"/>
</svg>
